<svg xmlns="http://www.w3.org/2000/svg" width="100" height="54.858" viewBox="0 0 100 54.858">
  <path id="Path_831" data-name="Path 831" d="M-265.342-10.033c-.788.174-1.037-.15-1.026-.936.014-1.074-.1-2.151-.154-3.227a1.691,1.691,0,0,0-.247-1.053c-.541,1.484-1.047,2.909-1.586,4.322-.131.342-.05.886-.651.9-.67.013-.573-.591-.706-.956-.5-1.385-.957-2.788-1.575-4.163-.1,1.536-.219,3.072-.292,4.615-.021.439-.2.523-.582.514s-.36-.25-.341-.508c.143-1.959.281-3.918.432-5.876.022-.286-.075-.676.449-.658.408.018.782-.06.962.5.5,1.583,1.08,3.145,1.692,4.9.608-1.66,1.188-3.142,1.684-4.651.191-.583.451-.831,1.068-.76.685.079.439.6.471.948a22.067,22.067,0,0,0,.4,3.988Zm-27.994,40.567.069-1.171c.549.11,1.1.235,1.39-.406a2.138,2.138,0,0,0-.052-1.992c-.449-.845-1.163-.159-1.739-.286-.407-.09-.219.539-.234.837-.03,1.005-.009,2.011-.007,3.018Zm.549-1.775c-.432,0-.5-.415-.5-.768,0-.316.043-.7.446-.7.482-.008.465.408.482.756-.014.317-.012.717-.418.714Zm-71.389,1.775a6.128,6.128,0,0,1-.248-4.344c.063-.2.34-.529.018-.658-.359-.139-.428.269-.535.515a5.419,5.419,0,0,0,.194,4.484Zm74.458,0c-.166-.374.143-.643.237-.95a5.068,5.068,0,0,0-.256-3.768c-.08-.172-.188-.362-.415-.3-.21.056-.156.258-.1.392a7.26,7.26,0,0,1-.036,4.628Zm-75.616-10.188c0,.672.11.92.86.91q5.043-.071,10.088,0c.7.008.9-.155.891-.878-.033-5.964-.012-11.929-.023-17.892a18.712,18.712,0,0,0-.768-5.252C-355.974-8.521-359.07-11-364.464-11c-.722,0-.878.188-.878.889.032,5.076.018,10.152.018,15.228s.019,10.149-.009,15.225Zm25.552.9c.674.018.96-.11.921-.868-.069-1.36-.038-2.727-.01-4.09.012-.554-.064-.824-.741-.878a7.283,7.283,0,0,1-3.858-1.453,4.621,4.621,0,0,1-2.1-3.862,4.621,4.621,0,0,1,2.083-3.869,7.242,7.242,0,0,1,3.864-1.45c.433-.033.754-.07.76-.685a24.263,24.263,0,0,0-.76-6.777c-1.577-5.732-4.853-8.37-10.293-8.317-.6.005-.8.139-.8.777q.032,15.362,0,30.724c0,.588.154.754.742.741,1.712-.04,3.425-.014,5.136-.014,1.688.011,3.369-.024,5.049.02ZM-336.1,3.972c0,.451,0,.782.628.778,3.552-.024,7.1-.016,10.655-.005.439,0,.609-.125.612-.594a22.66,22.66,0,0,0-1.17-8.039c-1.877-5.1-4.794-7.162-9.941-7.108-.632.007-.8.178-.791.794.033,2.346.013,4.693.013,7.04,0,2.377,0,4.755,0,7.132Zm45.632-8.847c-.429.035-.459-.329-.591-.59-1.941-3.84-4.881-5.975-9.367-5.529-.516.052-.7.144-.7.692q.03,7.18,0,14.359c0,.556.191.7.711.693q5.23-.024,10.46,0c.507,0,.735-.11.732-.677a22.984,22.984,0,0,0-1.12-7.855,2.176,2.176,0,0,1-.143-1.107Zm-27.986,8.865c-.007.572.147.768.74.768q5.233-.035,10.466,0c.549,0,.707-.183.7-.714a27.319,27.319,0,0,0-.687-6.406c-1.547-5.951-4.885-8.7-10.438-8.626-.643.009-.786.2-.777.807.032,2.346.013,4.694.013,7.04,0,2.369.016,4.748-.012,7.127Zm28.166-9.061c.174-.181.338-.375.526-.54a1.786,1.786,0,0,1,1.906-.535c.586.279.137.963.129,1.463a9,9,0,0,0,1.646,5.911,3.244,3.244,0,0,0,2.735,1.493,3.244,3.244,0,0,0,2.731-1.5,5.137,5.137,0,0,0,.576-.868,9.493,9.493,0,0,0,.211-8.417,4.6,4.6,0,0,0-3.182-2.754,6.227,6.227,0,0,0-5.056,1.16,6.227,6.227,0,0,0-2.423,4.587ZM-315.5-24.094c-3.925,1.079-5.356,5.3-2.736,8.046a6.594,6.594,0,0,0,8.962.174,4.544,4.544,0,0,0,1.539-3.553,4.544,4.544,0,0,0-1.759-3.45,6.215,6.215,0,0,0-4.279-1.442,5.021,5.021,0,0,0-1.727.224Zm-9.409,45.34c.53.009.72-.137.706-.69q-.053-2.187,0-4.375c.011-.529-.128-.708-.683-.7q-5.279.036-10.558,0c-.589,0-.665.239-.658.73.023,1.426.046,2.853-.009,4.279-.025.683.261.768.834.76,1.712-.029,3.424-.01,5.136-.01,1.745,0,3.489-.02,5.232.009Zm24.439-5.766c-.485-.007-.665.121-.658.634.032,1.489.038,2.98,0,4.47-.016.6.248.658.736.658q5.231-.022,10.463,0c.534,0,.718-.147.7-.695q-.049-2.187,0-4.375c.011-.53-.137-.711-.689-.7-1.742.034-3.487.012-5.232.012-1.772,0-3.543.018-5.323-.005Zm-17.329,0c-.486-.007-.665.122-.658.635.032,1.489.038,2.98,0,4.47-.016.6.248.658.736.658q5.231-.022,10.463,0c.535,0,.717-.148.7-.695q-.049-2.187,0-4.375c.011-.531-.138-.711-.689-.7-1.743.034-3.487.012-5.232.012-1.772,0-3.551.016-5.323-.007Zm36.044-6.553a5.157,5.157,0,0,0-.056,4.569,1.086,1.086,0,0,0,1.022.731c.474-.008.878-.6,1.441-.129.116.1.271-.193.271-.4V6.094c0-.3-.1-.495-.439-.472s-.3.274-.3.492V8.585c-1.028-.585-1.51-.512-1.938.341Zm1.71,3.827a.658.658,0,0,1-.633.481.644.644,0,0,1-.575-.439,3.928,3.928,0,0,1,.052-3.214c.287-.595.822-.557,1.153.022a4.228,4.228,0,0,1,.235,1.677,2.977,2.977,0,0,1-.23,1.473Zm3.87-23.364c0,.351.014.6.487.6s.5-.225.493-.583c-.012-1.233-.018-2.467,0-3.7.009-.594-.233-1.3.11-1.756.313-.406,1.014-.117,1.542-.154.282-.02.5-.056.5-.407,0-.314-.125-.454-.452-.452-1.455.009-2.909,0-4.364,0-.262,0-.4.094-.415.386-.01.329.122.467.439.461a4.1,4.1,0,0,0,.658,0c.883-.167,1.084.25,1.007,1.045-.064.658-.013,1.327-.013,1.99.01.86.018,1.718.007,2.568Zm-42.835,24a1.372,1.372,0,0,0,1.73.768c.329-.089.688-.155.623-.658-.079-.6-.459-.3-.741-.263-.756.082-1.239-.4-1.27-1.26-.033-.927.658-.364,1.007-.482a1.373,1.373,0,0,1,.565-.007c.539.06.788-.17.686-.7a7.454,7.454,0,0,0-.35-1.756,1.18,1.18,0,0,0-1.03-.849,1.172,1.172,0,0,0-1.115.726,4.608,4.608,0,0,0-.516,2.425,3.793,3.793,0,0,0,.409,2.057Zm.365-3.228c.061-.465.2-1.073.731-1.082.613-.01.713.642.752,1.127.052.658-.537.17-.709.393-.322-.127-.858.2-.774-.439Zm24.135.025a4.6,4.6,0,0,0-.4-1.354,1.078,1.078,0,0,0-.93-.653,1.077,1.077,0,0,0-1,.543,5.275,5.275,0,0,0-.069,4.9,1.439,1.439,0,0,0,1.855.458.535.535,0,0,0,.326-.257.534.534,0,0,0,.044-.413c-.088-.516-.395-.228-.634-.191a1.146,1.146,0,0,1-1.025-.235,1.146,1.146,0,0,1-.4-.972c-.069-1,.721-.329,1-.521,1.353.022,1.437-.055,1.237-1.306Zm-2.195,0c.079-.461.171-1.137.808-1.123.5.011.6.559.665,1.014.093.7-.439.416-.768.494-.239-.124-.816.247-.713-.381Zm-31.325,1.672c0-.7.012-1.395-.008-2.091a2.29,2.29,0,0,0-.157-.643,1.227,1.227,0,0,0-.79-.879,1.227,1.227,0,0,0-1.165.2.531.531,0,0,0-.259.321.531.531,0,0,0,.049.41c.169.377.36.093.524.033a.71.71,0,0,1,.644-.036.71.71,0,0,1,.408.5c.194.549-.157.669-.585.816a2.285,2.285,0,0,0-1.263,1.483,2.285,2.285,0,0,0,.34,1.918.823.823,0,0,0,.741.329c1.561-.11,1.561-.11,1.561-1.789v-.571Zm-1.437,1.473c-.509.047-.439-.571-.449-.963-.02-.611.213-1.071.886-1.073.549,0,.191.475.3.68C-328.743,12.587-328.8,13.266-329.47,13.328Zm-4.868-1.854c1.692.041,1.975-.347,1.463-2.011a3.506,3.506,0,0,0-.11-.362c-.21-.482-.485-.917-1.082-.921a1.228,1.228,0,0,0-1.16.834,5.706,5.706,0,0,0-.151,4.152,1.564,1.564,0,0,0,.7.878A1.434,1.434,0,0,0-333.153,14c.393-.234.2-.587.116-.912-1.443.385-1.688.187-1.945-1.611Zm-.539-1.273c.018-.51.146-1.117.738-1.135s.612.6.686,1.061c.11.658-.417.343-.688.45-.242-.134-.762.238-.736-.375Zm31.048-1.31a1.248,1.248,0,0,0-.858-.672,1.248,1.248,0,0,0-1.058.258.637.637,0,0,0-.15.691c.056.311.219.174.4.093.483-.219.9-.263,1.128.383.264.745-.319.721-.723.892a2.336,2.336,0,0,0-.919,3.1c.483,1.143,1.323.155,1.934.43a.462.462,0,0,0,.354.029c.272-.155.191-.447.182-.687-.025-.725-.073-1.45-.11-2.175a5.508,5.508,0,0,0-.184-2.337Zm-1.159,4.432c-.452.038-.549-.526-.526-.955.035-.549.228-1.023.852-1.073s.285.486.4.745c-.07.546-.066,1.228-.726,1.285Zm-5.554,13.525a1,1,0,0,0,.073-1.385.628.628,0,0,0-.519-.309.628.628,0,0,0-.539.271c-.342.439-.506.209-.759-.036a.716.716,0,0,0-.794-.151c-.3.129-.158.446-.162.677-.015.979-.01,1.959,0,2.937,0,.236-.067.486.3.583.923.243,1.332-.034,1.334-.961V26.295C-311.269,26.726-311.037,27.3-310.541,26.848Zm-3.425-12.729a1.142,1.142,0,0,0,1.322-.178,1.536,1.536,0,0,0,.459-1.007,2.132,2.132,0,0,0-.924-2.3.909.909,0,0,1-.431-1.136c.156-.5.507-.4.837-.251.284.126.3-.023.348-.23.079-.311.065-.577-.267-.7a1.018,1.018,0,0,0-1.277.264,2.2,2.2,0,0,0-.368,1.654,2.2,2.2,0,0,0,.916,1.426.956.956,0,0,1,.5.614.956.956,0,0,1-.134.78c-.313.579-.754.136-1.207-.042-.134.464-.3.892.221,1.109Zm28.247-2.755v1.615a1.458,1.458,0,0,0,.381,1.041.7.7,0,0,0,.5.241.7.7,0,0,0,.52-.2c.183-.184.259-.745-.11-.789-.714-.083-.575-.607-.6-.977-.064-.787-.014-1.581-.03-2.372-.007-.407-.022-.779.566-.718.251.026.309-.157.3-.37s.053-.531-.25-.52c-.718.026-.607-.453-.608-.878,0-.158.01-.368-.177-.381-.129-.01-.375.121-.387.214a2.222,2.222,0,0,1-.624,1.409c-.088.083-.118.48.2.519.4.049.312.323.315.556.008.538,0,1.076,0,1.615ZM-309.368,7.1q-.453.9-.884,1.819c-.02.043.012.161.042.169.816.234.449.9.484,1.39.053.723.022,1.453.011,2.179a2.444,2.444,0,0,0,.283,1.182.709.709,0,0,0,.8.38c.208-.033.439-.065.445-.38,0-.338,0-.613-.465-.65-.329-.025-.305-.36-.308-.607-.01-.948,0-1.9-.012-2.844,0-.315.018-.575.439-.529.308.034.376-.156.351-.413-.02-.205.067-.518-.264-.5-.622.035-.51-.375-.531-.745-.011-.184.133-.461-.2-.522-.07.02-.163.023-.184.064Zm7.876,1.756c-.033.03.015.236.057.248.768.219.439.845.47,1.306.044.82,0,1.646.019,2.465a1.52,1.52,0,0,0,.462,1.2.7.7,0,0,0,.957,0c.185-.191.255-.732-.11-.8-.676-.122-.567-.567-.575-.988-.013-.822,0-1.646,0-2.466,0-.317-.047-.586.45-.628.658-.055.283-.8.23-.805-1.036-.019-.532-.866-.787-1.426-.858.4-.624,1.385-1.172,1.884ZM-327.7,25.5c-.945-.008-1.536.763-1.549,2-.01,1.214.6,2.011,1.542,2.01.959,0,1.536-.748,1.536-2s-.576-2.012-1.529-2.02Zm.023.758c.667.007.807.628.81,1.195,0,.593-.092,1.271-.808,1.295-.734.024-.819-.651-.861-1.229.035-.622.123-1.277.859-1.27Zm20.958,1.072c-.162.033-.317.048-.346.243s-.035.41.207.453c.316.056.646.125.323.5a.7.7,0,0,1-.5.256.7.7,0,0,1-.527-.191,1.777,1.777,0,0,1-.189-1.95c.428-.593.878-.471,1.317.024a.428.428,0,0,0,.6,0c.188-.145.023-.346-.055-.5a1.44,1.44,0,0,0-1.04-.652,1.44,1.44,0,0,0-1.165.388,2.553,2.553,0,0,0,.023,3.21,1.61,1.61,0,0,0,1.774.229.852.852,0,0,0,.527-.391.852.852,0,0,0,.092-.65c0-.967-.214-1.147-1.048-.974Zm-11.112,1.281c-.073.653.142.888.824.855.563-.027.887-.086.811-.768-.066-.593,0-1.2-.018-1.8a1.879,1.879,0,0,0-.674-1.5.789.789,0,0,0-.711-.17c-.354.093-.207.413-.219.639-.022.473-.007.947-.007,1.421a11.983,11.983,0,0,1-.009,1.316Zm-1.959-.009c-.069.646.139.878.821.862.612-.016.946-.11.867-.819-.058-.529,0-1.07-.016-1.605a2.245,2.245,0,0,0-.507-1.487.9.9,0,0,0-.933-.322c-.4.11-.2.475-.213.724-.032.439-.009.878-.009,1.323a12.346,12.346,0,0,1-.012,1.315Zm-1.9.046c-.053.594.122.8.768.822.768.022.994-.232.917-.959a15.5,15.5,0,0,0-.116-2.067,1.938,1.938,0,0,0-.515-.988.813.813,0,0,0-.872-.211c-.322.121-.151.439-.167.664-.03.439-.009.878-.009,1.317,0,.469.033.945-.009,1.412Zm-39.445-2.878c-.185-.4-.7-.272-.867.257-.3.959-.6,1.917-.9,2.878-.053.174-.3.422.076.517a.465.465,0,0,0,.561-.206c.613-.914.916-.91,1.563,0a.513.513,0,0,0,.572.205c.153-.023.19-.136.189-.286a35.185,35.185,0,0,0-1.2-3.374Zm72.75-19.483c0-.3.1-.689-.421-.658-.45.032-.329.391-.329.647q-.012,3.6,0,7.2c0,.3-.1.689.421.658.45-.032.329-.391.329-.647.011-1.2,0-2.4,0-3.6s.012-2.411,0-3.611ZM-325.51,13.4c0,.271-.184.707.329.73s.394-.4.395-.689q.011-3.557,0-7.115c0-.293.11-.712-.4-.683s-.319.465-.329.736c-.02,1.17-.009,2.339-.009,3.511s0,2.33.015,3.5Zm10.045,15.4c-.037.492.131.633.63.658.7.029,1.048-.11.947-.907-.071-.559,0-1.133-.02-1.7a1.844,1.844,0,0,0-.636-1.42.751.751,0,0,0-.7-.194c-.361.1-.192.416-.2.635-.026.472-.009.946-.008,1.419,0,.49.03,1-.008,1.5Zm-40.645.219a1.273,1.273,0,0,0,1.128.484,1.273,1.273,0,0,0,1.012-.693c.1-.219.262-.474-.04-.672s-.429-.015-.583.232c-.259.416-.672.6-.98.132a1.826,1.826,0,0,1-.014-1.975.524.524,0,0,1,.427-.278.525.525,0,0,1,.462.216c.262.287.542.561.8.169.207-.316-.122-.65-.4-.867a1.36,1.36,0,0,0-1.035-.212,1.359,1.359,0,0,0-.874.593,2.536,2.536,0,0,0-.358,1.361,2.314,2.314,0,0,0,.454,1.5Zm16.893-15.8c.025.307-.313.887.315.9.684.009.38-.61.4-.954.043-.886.014-1.775.019-2.664,0-.425.049-.923.465-1.064a.658.658,0,0,0,.477-.354.658.658,0,0,0,0-.593c-.343-.8-1.06.758-1.505-.168-.03-.061-.151.329-.179.526a2.645,2.645,0,0,0,0,.38v1.893c0,.7-.044,1.4.013,2.093Zm-9.319,15.7c0,.219-.052.469.278.5.379.032.377-.226.384-.5.01-.439.025-.884.068-1.324a.361.361,0,0,1,.12-.251.361.361,0,0,1,.263-.091c.234.007.322.2.329.388.019.474.016.949.012,1.426,0,.227.076.356.322.36s.341-.11.338-.342c-.007-.411,0-.823,0-1.234-.014-1.221-.11-1.33-1.717-1.207-.789.061-.232.763-.391,1.138a.78.78,0,0,0,0,.283Q-348.54,28.5-348.537,28.921Zm53.029-1.821c0-.236-.023-.451-.329-.474-.4-.031-.36.252-.363.506-.007.409.01.822-.026,1.229a.428.428,0,0,1-.413.439c-.3,0-.329-.25-.329-.474-.011-.439-.01-.883-.01-1.326,0-.219-.087-.368-.322-.371s-.329.142-.329.361v1.137c.008,1.259.069,1.346,1.682,1.275.846-.037.278-.779.439-1.169a.513.513,0,0,0,0-.188C-295.509,27.73-295.509,27.414-295.509,27.1Zm-45.318,2.292a.948.948,0,0,0,1.139-.189c.147-.149.382-.323.194-.554a.361.361,0,0,0-.243-.137.361.361,0,0,0-.268.077c-.2.178-.4.352-.64.1-.069-.074-.119-.282-.075-.329.2-.2.476-.11.71-.092.534.053.744-.1.623-.67-.134-.634-.439-1.108-1.121-1.037-.855.088-.946.8-1.023,1.447C-341.495,28.592-341.4,29.13-340.826,29.391Zm41.751-1.376a1.378,1.378,0,0,0-1.173-1.477,1.306,1.306,0,0,0-.917.429,1.306,1.306,0,0,0-.334.955c-.045.884.439,1.536,1.15,1.565a1.348,1.348,0,0,0,.951-.464,1.348,1.348,0,0,0,.323-1.008Zm-1.187-.719c.392.019.461.349.473.684.014.379-.089.756-.492.768s-.531-.357-.5-.674C-300.783,27.642-300.729,27.275-300.263,27.3Zm-50.932,2.195a1.365,1.365,0,0,0,.928-.509,1.365,1.365,0,0,0,.286-1.019,1.317,1.317,0,0,0-.307-.964,1.317,1.317,0,0,0-.9-.462c-.719.005-1.2.621-1.183,1.525.009.849.495,1.436,1.177,1.431Zm.048-2.195c.38.027.475.352.482.691.007.376-.116.749-.512.768-.432.016-.5-.384-.518-.788.029-.322.079-.7.554-.67Zm16.069,1.609c.005.244-.048.543.353.509.342-.029.247-.3.257-.5.021-.409,0-.821.042-1.228a.439.439,0,0,1,.424-.439c.309,0,.308.259.313.476.01.41.005.821.005,1.231,0,.23.008.448.322.465.369.022.4-.214.393-.49-.005-.347,0-.695,0-1.041-.018-1.191-.153-1.323-1.715-1.227-.81.05-.206.753-.388,1.112-.038.075-.006.187,0,.281-.006.286-.01.571,0,.855Zm-8.985.549a.962.962,0,0,0,1.13-.471c.093-.151.219-.37.036-.509-.146-.11-.373-.285-.549.025s-.45.387-.666.082a1.073,1.073,0,0,1-.058-1.086c.151-.329.439-.357.675-.076a.362.362,0,0,0,.277.156.362.362,0,0,0,.293-.123c.219-.247-.018-.469-.194-.638a.962.962,0,0,0-1.136-.181c-.574.261-.68.778-.708,1.448.075.526.12,1.176.9,1.373Zm19.17-2.375c.455.595.194,1.2.285,1.791.035.23-.083.549.329.549s.289-.319.329-.549c.1-.6-.259-1.279.367-1.842.09-.081-.279-.813.166-1.249.126-.123-.219-.21-.4-.238-.495-.022-1.378,1.143-1.075,1.539Zm-13.023.53a11.034,11.034,0,0,1,.022,1.131c.025.256-.219.7.346.683.462-.015.306-.383.329-.636.06-.6-.22-1.345.682-1.608.11-.031.183-.253.11-.419a.312.312,0,0,0-.372-.159c-.722-.032-1.318.036-1.116,1.01Zm33.755.994c.06.289-.235.787.339.8s.317-.489.363-.778c.084-.535-.229-1.214.658-1.426.21-.05.246-.439-.06-.6a.934.934,0,0,0-.85.054.934.934,0,0,0-.452.722v.658a2.851,2.851,0,0,0,0,.568Zm-10.694-5.129c-.427.01-.778.179-.775.647,0,.506.365.717.834.693a.691.691,0,0,0,.525-.193.691.691,0,0,0,.21-.519.7.7,0,0,0-.262-.485.7.7,0,0,0-.532-.143ZM-290.52-5.007a.82.82,0,0,0,.052.127l-.016-.013c.161.042.18-.07.2-.184h-.206C-290.5-5.053-290.525-5.027-290.52-5.007Z" transform="translate(365.342 24.324)" fill="#008c44"/>
</svg>
